<?plantuml 1.2026.2?><svg xmlns="http://www.w3.org/2000/svg" xmlns:xlink="http://www.w3.org/1999/xlink" height="702px" preserveAspectRatio="none" style="width:802px;height:702px;background:#FFFFFF;" version="1.1" viewBox="0 0 802 702" width="802px" zoomAndPan="magnify"><title>Diagramme d'Architecture de D&#233;veloppement - Crystal ERP</title><defs></defs><g><g class="title"><text fill="#000000" font-family="sans-serif" font-size="14" font-weight="bold" lengthAdjust="spacing" textLength="468.7539" x="159.7969" y="22.9951">Diagramme d'Architecture de D&#233;veloppement - Crystal ERP</text></g><g class="cluster" id="ent0003"><polygon fill="none" points="16,199.7969,26,189.7969,465,189.7969,465,656.7969,455,666.7969,16,666.7969,16,199.7969" style="stroke:#181818;stroke-width:1;"></polygon><line style="stroke:#181818;stroke-width:1;" x1="455" x2="465" y1="199.7969" y2="189.7969"></line><line style="stroke:#181818;stroke-width:1;" x1="16" x2="455" y1="199.7969" y2="199.7969"></line><line style="stroke:#181818;stroke-width:1;" x1="455" x2="455" y1="199.7969" y2="666.7969"></line><text fill="#000000" font-family="sans-serif" font-size="14" font-weight="bold" lengthAdjust="spacing" textLength="86.2354" x="193.3823" y="215.792">Poste local</text></g><g class="cluster" id="ent0004"><path d="M50.5,245.7969 L217.6543,245.7969 A3.75,3.75 0 0 1 220.1543,248.2969 L227.1543,284.3906 L422.5,284.3906 A2.5,2.5 0 0 1 425,286.8906 L425,632.2969 A2.5,2.5 0 0 1 422.5,634.7969 L50.5,634.7969 A2.5,2.5 0 0 1 48,632.2969 L48,248.2969 A2.5,2.5 0 0 1 50.5,245.7969" fill="none" style="stroke:#000000;stroke-width:1.5;"></path><line style="stroke:#000000;stroke-width:1.5;" x1="48" x2="227.1543" y1="284.3906" y2="284.3906"></line><text fill="#000000" font-family="sans-serif" font-size="14" font-weight="bold" lengthAdjust="spacing" textLength="132.0703" x="69.042" y="260.792">Docker Compose</text><text fill="#000000" font-family="sans-serif" font-size="14" font-weight="bold" lengthAdjust="spacing" textLength="166.1543" x="52" y="277.0889">(docker compose up)</text></g><g class="entity" id="ent0005"><rect fill="#ADD8E6" height="52.5938" rx="2.5" ry="2.5" style="stroke:#181818;stroke-width:0.5;" width="123.1885" x="64.5" y="296.7969"></rect><text fill="#000000" font-family="sans-serif" font-size="14" lengthAdjust="spacing" textLength="63.1094" x="74.5" y="319.792">Frontend</text><text fill="#000000" font-family="sans-serif" font-size="14" lengthAdjust="spacing" textLength="103.1885" x="74.5" y="336.0889">localhost:3000</text></g><g class="entity" id="ent0006"><rect fill="#FFE4C4" height="52.5938" rx="2.5" ry="2.5" style="stroke:#181818;stroke-width:0.5;" width="123.1885" x="222.5" y="426.7969"></rect><text fill="#000000" font-family="sans-serif" font-size="14" lengthAdjust="spacing" textLength="86.96" x="232.5" y="449.792">Backend API</text><text fill="#000000" font-family="sans-serif" font-size="14" lengthAdjust="spacing" textLength="103.1885" x="232.5" y="466.0889">localhost:8080</text></g><g class="entity" id="ent0007"><rect fill="#FFFFFF" height="52.5938" rx="2.5" ry="2.5" style="stroke:#181818;stroke-width:0.5;" width="187.3711" x="222.5" y="296.7969"></rect><text fill="#000000" font-family="sans-serif" font-size="14" lengthAdjust="spacing" textLength="61.0586" x="232.5" y="319.792">Swagger</text><text fill="#000000" font-family="sans-serif" font-size="14" lengthAdjust="spacing" textLength="167.3711" x="232.5" y="336.0889">localhost:8080/swagger</text></g><g class="entity" id="ent0008"><path d="M137.5,566.7969 C137.5,556.7969 199.0942,556.7969 199.0942,556.7969 C199.0942,556.7969 260.6885,556.7969 260.6885,566.7969 L260.6885,608.3906 C260.6885,618.3906 199.0942,618.3906 199.0942,618.3906 C199.0942,618.3906 137.5,618.3906 137.5,608.3906 L137.5,566.7969" fill="#4169E1" style="stroke:#181818;stroke-width:0.5;"></path><path d="M137.5,566.7969 C137.5,576.7969 199.0942,576.7969 199.0942,576.7969 C199.0942,576.7969 260.6885,576.7969 260.6885,566.7969" fill="none" style="stroke:#181818;stroke-width:0.5;"></path><text fill="#000000" font-family="sans-serif" font-size="14" lengthAdjust="spacing" textLength="80.7529" x="147.5" y="593.792">PostgreSQL</text><text fill="#000000" font-family="sans-serif" font-size="14" lengthAdjust="spacing" textLength="103.1885" x="147.5" y="610.0889">localhost:5433</text></g><g class="entity" id="ent0009"><rect fill="#FFA500" height="52.5938" rx="2.5" ry="2.5" style="stroke:#181818;stroke-width:0.5;" width="123.1885" x="64.5" y="426.7969"></rect><text fill="#000000" font-family="sans-serif" font-size="14" lengthAdjust="spacing" textLength="62.6377" x="74.5" y="449.792">pgAdmin</text><text fill="#000000" font-family="sans-serif" font-size="14" lengthAdjust="spacing" textLength="103.1885" x="74.5" y="466.0889">localhost:5050</text></g><g class="entity" id="ent0002"><ellipse cx="219.8813" cy="51.2969" fill="#F1F1F1" rx="8" ry="8" style="stroke:#181818;stroke-width:0.5;"></ellipse><path d="M219.8813,59.2969 L219.8813,86.2969 M206.8813,67.2969 L232.8813,67.2969 M219.8813,86.2969 L206.8813,101.2969 M219.8813,86.2969 L232.8813,101.2969" fill="none" style="stroke:#181818;stroke-width:0.5;"></path><text fill="#000000" font-family="sans-serif" font-size="14" lengthAdjust="spacing" textLength="89.7627" x="175" y="115.792">D&#233;veloppeur</text></g><g class="entity" id="ent0016"><path d="M488.5,440.7969 L488.5,465.9297 L795.3477,465.9297 L795.3477,450.7969 L785.3477,440.7969 L488.5,440.7969" fill="#FEFFDD" style="stroke:#181818;stroke-width:0.5;"></path><path d="M785.3477,440.7969 L785.3477,450.7969 L795.3477,450.7969 L785.3477,440.7969" fill="#FEFFDD" style="stroke:#181818;stroke-width:1;"></path><text fill="#000000" font-family="sans-serif" font-size="13" font-weight="bold" lengthAdjust="spacing" textLength="91.438" x="494.5" y="457.8638">Commande :</text><text fill="#000000" font-family="sans-serif" font-size="13" lengthAdjust="spacing" textLength="190.2773" x="590.0703" y="457.8638">docker compose up -d --build</text></g><g class="link" id="lnk10"><path d="M179.55,119.0869 C171.69,128.1169 164.27,138.2469 159,148.7969 C134.82,197.2069 128.5832,255.344 126.8632,290.504" fill="none" id="Dev-to-Frontend" style="stroke:#181818;stroke-width:1;"></path><polygon fill="#181818" points="126.57,296.4969,131.005,287.7031,126.8143,291.5028,123.0145,287.3122,126.57,296.4969" style="stroke:#181818;stroke-width:1;"></polygon><text fill="#000000" font-family="sans-serif" font-size="13" lengthAdjust="spacing" textLength="99.5757" x="160" y="161.8638">Interface React</text></g><g class="link" id="lnk11"><path d="M247.13,118.9469 C253.24,128.3769 259.3,138.7069 264,148.7969 C287.38,198.9569 301.9028,256.2966 309.5028,290.8966" fill="none" id="Dev-to-Swagger" style="stroke:#181818;stroke-width:1;"></path><polygon fill="#181818" points="310.79,296.7569,312.766,287.1083,309.7173,291.8733,304.9523,288.8246,310.79,296.7569" style="stroke:#181818;stroke-width:1;"></polygon><text fill="#000000" font-family="sans-serif" font-size="13" lengthAdjust="spacing" textLength="125.2012" x="270" y="161.8638">Test des routes API</text></g><g class="link" id="lnk12"><path d="M157.59,349.8969 C185.15,372.2169 220.2578,400.6601 247.7978,422.9701" fill="none" id="Frontend-to-Backend" style="stroke:#181818;stroke-width:1;stroke-dasharray:7,7;"></path><polygon fill="#181818" points="252.46,426.7469,247.9846,417.9736,248.5749,423.5995,242.9489,424.1898,252.46,426.7469" style="stroke:#181818;stroke-width:1;"></polygon><text fill="#000000" font-family="sans-serif" font-size="13" lengthAdjust="spacing" textLength="24.21" x="216" y="392.8638">/api</text></g><g class="link" id="lnk13"><path d="M265.2287,485.0388 C256.6687,498.9688 248.94,511.3469 239,526.7969 C232.7,536.5869 229.033,542.1978 222.673,551.7178" fill="none" id="Backend-DB" style="stroke:#181818;stroke-width:1;"></path><polygon fill="#181818" points="268.37,479.9269,260.2501,485.5006,265.7522,484.1868,267.066,489.689,268.37,479.9269" style="stroke:#181818;stroke-width:1;"></polygon><polygon fill="#181818" points="219.34,556.7069,227.6656,551.4453,222.1175,552.5493,221.0135,547.0012,219.34,556.7069" style="stroke:#181818;stroke-width:1;"></polygon><text fill="#000000" font-family="sans-serif" font-size="13" lengthAdjust="spacing" textLength="50.1973" x="251" y="522.8638">EF Core</text></g><g class="link" id="lnk14"><path d="M126.38,480.0169 C127.52,494.4569 130.53,512.4169 138,526.7969 C143.68,537.7369 147.8352,543.6664 156.6052,552.3864" fill="none" id="pgAdmin-to-DB" style="stroke:#181818;stroke-width:1;"></path><polygon fill="#181818" points="160.86,556.6169,157.2982,547.4346,157.3144,553.0915,151.6575,553.1076,160.86,556.6169" style="stroke:#181818;stroke-width:1;"></polygon><text fill="#000000" font-family="sans-serif" font-size="13" lengthAdjust="spacing" textLength="95.3545" x="139" y="522.8638">Administration</text></g><g class="link" id="lnk17"><path d="M465.2918,330.0337 C465.806,330.3895 466.3417,330.7602 466.8981,331.1451 C468.0108,331.915 469.2063,332.7422 470.4788,333.6226 C473.0238,335.3835 475.8768,337.3575 478.992,339.513 C491.4528,348.1347 508.1081,359.6587 526.0213,372.0531 C561.8475,396.8419 602.705,425.1119 625.1,440.6069" fill="none" id="Local-GMN15" style="stroke:#181818;stroke-width:1;stroke-dasharray:7,7;"></path></g><g class="footer"><text fill="#888888" font-family="sans-serif" font-size="10" lengthAdjust="spacing" textLength="272.002" x="258.1729" y="692.0791">Crystal ERP - Environnement de D&#233;veloppement Local</text></g><?plantuml-src TLF1Rjim3BthAuZui2s0MmDPWS8O2gHB2XJe8Mjwx8Ms6KU8B7cId20O-a7xZltOA2jsiotpnHRvtYFvH6-CyMJXgpqwZmgMpoj8OQdtqXgjgI7jeI9O_Fgv9sNQDaQUJ8bA2BUJkaMB3PIcQOtcrDeV5O6bqgEk5Pr1t1OhSv2wXWqgHq9uwHcwa5XpkY6eFinjkPMUkPsb2rNJyow5mD8R2vDtK6SdW0uMj1T26-PFLiPv0XMwxLDzt_132E2dnNA7DQCMfjm52y8CZbxrnoe6oXY0hlqKXMFuH0_FE3PC7jWlJxfwrNsvBLVEPrcMzSmX2OcIzTONggDB6lVSKK3DLu_dChVPRPGPyaaXtVVB4ki3rZNPl-dNBiPxcHC6aaDmUrIfq6E1xcHRRMdzxUbSv-RpR1Pzk8V4cYEg_ytHrlEgaVeFSdOJPpZb836MDoJItyIR47njaAPtxrxbyCWVTeCbmJFnRO-GOO0SNiY5_NHWJUVvnSu9CIfSNTsDdkLmZQqKm_5BqE51SbW-yCrR4aDZOw8_IkSjUcbqM2dUfS9uRnemczC_032Tyk8qg7dVykaK_jaTI2lMB3gfAX4g1vdV?></g></svg>