<?plantuml 1.2026.2?><svg xmlns="http://www.w3.org/2000/svg" xmlns:xlink="http://www.w3.org/1999/xlink" height="1015px" preserveAspectRatio="none" style="width:910px;height:1015px;background:#FFFFFF;" version="1.1" viewBox="0 0 910 1015" width="910px" zoomAndPan="magnify"><title>Diagramme d'Architecture de Production - Crystal ERP</title><defs></defs><g><g class="title"><text fill="#000000" font-family="sans-serif" font-size="14" font-weight="bold" lengthAdjust="spacing" textLength="430.4658" x="232.806" y="22.9951">Diagramme d'Architecture de Production - Crystal ERP</text></g><g class="cluster" id="ent0004"><polygon fill="none" points="25.4,356.7969,35.4,346.7969,467.4,346.7969,467.4,969.7969,457.4,979.7969,25.4,979.7969,25.4,356.7969" style="stroke:#181818;stroke-width:1;"></polygon><line style="stroke:#181818;stroke-width:1;" x1="457.4" x2="467.4" y1="356.7969" y2="346.7969"></line><line style="stroke:#181818;stroke-width:1;" x1="25.4" x2="457.4" y1="356.7969" y2="356.7969"></line><line style="stroke:#181818;stroke-width:1;" x1="457.4" x2="457.4" y1="356.7969" y2="979.7969"></line><text fill="#000000" font-family="sans-serif" font-size="14" font-weight="bold" lengthAdjust="spacing" textLength="176.5176" x="154.1412" y="372.792">Serveur crystal-server</text><text fill="#000000" font-family="sans-serif" font-size="14" font-weight="bold" lengthAdjust="spacing" textLength="55.4805" x="214.6598" y="389.0889">(Linux)</text></g><g class="cluster" id="ent0006"><rect fill="none" height="421" rx="2.5" ry="2.5" style="stroke:#181818;stroke-width:1;" width="190" x="57.4" y="526.7969"></rect><path d="M199.4703,526.7969 L199.4703,552.3906 L189.4703,562.3906 L57.4,562.3906" fill="none" style="stroke:#181818;stroke-width:1;"></path><text fill="#000000" font-family="sans-serif" font-size="14" font-weight="bold" lengthAdjust="spacing" textLength="132.0703" x="60.4" y="540.792">Docker Compose</text><text fill="#000000" font-family="sans-serif" font-size="14" font-weight="bold" lengthAdjust="spacing" textLength="84.916" x="83.9771" y="557.0889">(./start.sh)</text></g><g class="entity" id="ent0005"><rect fill="#FFA500" height="52.5938" rx="2.5" ry="2.5" style="stroke:#181818;stroke-width:0.5;" width="158.4141" x="127.4" y="410.7969"></rect><text fill="#000000" font-family="sans-serif" font-size="14" lengthAdjust="spacing" textLength="78.5654" x="137.4" y="433.792">cloudflared</text><text fill="#000000" font-family="sans-serif" font-size="14" lengthAdjust="spacing" textLength="138.4141" x="137.4" y="450.0889">(crystal-dev-tunnel)</text></g><g class="entity" id="ent0007"><rect fill="#ADD8E6" height="68.8906" rx="2.5" ry="2.5" style="stroke:#181818;stroke-width:0.5;" width="141.8096" x="73.4" y="577.7969"></rect><text fill="#000000" font-family="sans-serif" font-size="14" lengthAdjust="spacing" textLength="63.1094" x="83.4" y="600.792">Frontend</text><text fill="#000000" font-family="sans-serif" font-size="14" lengthAdjust="spacing" textLength="121.8096" x="83.4" y="617.0889">React 19 + nginx</text><text fill="#000000" font-family="sans-serif" font-size="14" lengthAdjust="spacing" textLength="103.1885" x="83.4" y="633.3857">localhost:3000</text></g><g class="entity" id="ent0008"><rect fill="#FFE4C4" height="68.8906" rx="2.5" ry="2.5" style="stroke:#181818;stroke-width:0.5;" width="156.7188" x="73.9" y="723.7969"></rect><text fill="#000000" font-family="sans-serif" font-size="14" lengthAdjust="spacing" textLength="86.96" x="83.9" y="746.792">Backend API</text><text fill="#000000" font-family="sans-serif" font-size="14" lengthAdjust="spacing" textLength="136.7188" x="83.9" y="763.0889">Crystal.API (.NET 9)</text><text fill="#000000" font-family="sans-serif" font-size="14" lengthAdjust="spacing" textLength="103.1885" x="83.9" y="779.3857">localhost:8080</text></g><g class="entity" id="ent0009"><path d="M90.9,879.7969 C90.9,869.7969 152.4942,869.7969 152.4942,869.7969 C152.4942,869.7969 214.0885,869.7969 214.0885,879.7969 L214.0885,921.3906 C214.0885,931.3906 152.4942,931.3906 152.4942,931.3906 C152.4942,931.3906 90.9,931.3906 90.9,921.3906 L90.9,879.7969" fill="#4169E1" style="stroke:#181818;stroke-width:0.5;"></path><path d="M90.9,879.7969 C90.9,889.7969 152.4942,889.7969 152.4942,889.7969 C152.4942,889.7969 214.0885,889.7969 214.0885,879.7969" fill="none" style="stroke:#181818;stroke-width:0.5;"></path><text fill="#000000" font-family="sans-serif" font-size="14" lengthAdjust="spacing" textLength="103.0176" x="100.9" y="906.792">PostgreSQL 18</text><text fill="#000000" font-family="sans-serif" font-size="14" lengthAdjust="spacing" textLength="103.1885" x="100.9" y="923.0889">localhost:5433</text></g><g class="entity" id="ent0002"><ellipse cx="206.5006" cy="51.2969" fill="#F1F1F1" rx="8" ry="8" style="stroke:#181818;stroke-width:0.5;"></ellipse><path d="M206.5006,59.2969 L206.5006,86.2969 M193.5006,67.2969 L219.5006,67.2969 M206.5006,86.2969 L193.5006,101.2969 M206.5006,86.2969 L219.5006,101.2969" fill="none" style="stroke:#181818;stroke-width:0.5;"></path><text fill="#000000" font-family="sans-serif" font-size="14" lengthAdjust="spacing" textLength="79.3037" x="142.4" y="115.792">Utilisateurs</text><text fill="#000000" font-family="sans-serif" font-size="14" lengthAdjust="spacing" textLength="128.2012" x="142.4" y="132.0889">(Desktop / Mobile)</text></g><g class="entity" id="ent0003"><path d="M154.029,222.9874 C157.1932,216.5757 163.565,216.2933 167.2445,222.4454 C171.2983,215.1211 175.9571,216.3124 180.427,222.0246 C183.9809,214.6874 188.9218,214.0811 194.3231,220.1029 C198.2872,214.2209 204.1921,214.7874 207.3106,221.0101 C211.9658,214.7917 218.0489,214.5041 222.2452,221.5277 C226.0007,214.5255 231.2742,213.8473 235.8119,220.7654 C240.8063,215.7406 245.9859,215.4071 249.4024,222.5306 C252.9424,215.8085 258.4356,216.7459 262.198,222.2988 C268.7727,222.5939 269.9855,227.8838 267.0431,232.6385 C273.5339,235.0136 275.5882,238.3478 270.5586,244.2199 C275.6896,249.7613 274.898,254.3778 267.8344,257.3983 C271.2416,262.7478 269.8019,267.5469 262.8253,267.9818 C259.2031,275.4786 252.3296,276.7217 247.4133,269.3206 C245.852,275.9537 240.0849,278.0241 235.4085,272.3622 C230.5732,279.0048 225.8802,279.0959 220.3504,273.1961 C217.2179,281.2405 212.4618,281.38 206.8721,275.5903 C202.1642,280.218 197.8435,280.3042 194.7867,273.7981 C189.6132,281.189 182.9012,279.0586 180.1047,271.4685 C175.6283,277.0179 170.3303,276.4019 166.7659,270.4141 C162.2729,275.6375 157.7892,275.9207 154.0701,269.5655 C146.9137,269.3237 144.689,263.2435 148.1383,257.6998 C140.1082,255.0927 140.6652,249.8117 145.0887,244.358 C140.7535,238.7627 142.8698,235.7955 148.8178,233.8494 C144.7028,227.7902 148.0857,224.2211 154.029,222.9874" fill="#FFA500" style="stroke:#181818;stroke-width:0.5;"></path><text fill="#000000" font-family="sans-serif" font-size="14" lengthAdjust="spacing" textLength="71.7568" x="158.9" y="240.792">Cloudflare</text><text fill="#000000" font-family="sans-serif" font-size="14" lengthAdjust="spacing" textLength="95.0742" x="158.9" y="257.0889">(HTTPS / SSL)</text></g><g class="entity" id="ent0017"><path d="M303.9,216.7969 L303.9,240.2969 L269.22,244.2969 L303.9,248.2969 L303.9,272.1953 A0,0 0 0 0 303.9,272.1953 L534.4806,272.1953 A0,0 0 0 0 534.4806,272.1953 L534.4806,226.7969 L524.4806,216.7969 L303.9,216.7969 A0,0 0 0 0 303.9,216.7969" fill="#FEFFDD" style="stroke:#181818;stroke-width:0.5;"></path><path d="M524.4806,216.7969 L524.4806,226.7969 L534.4806,226.7969 L524.4806,216.7969" fill="#FEFFDD" style="stroke:#181818;stroke-width:0.5;"></path><text fill="#000000" font-family="sans-serif" font-size="13" font-weight="bold" lengthAdjust="spacing" textLength="117.6411" x="309.9" y="233.8638">Routes publi&#233;es</text><text fill="#000000" font-family="sans-serif" font-size="13" lengthAdjust="spacing" textLength="209.5806" x="309.9" y="248.9966">dev.librairiecrystal.com &#8594; :3000</text><text fill="#000000" font-family="sans-serif" font-size="13" lengthAdjust="spacing" textLength="205.4673" x="309.9" y="264.1294">api.librairiecrystal.com &#8594; :8080</text></g><g class="entity" id="ent0020"><path d="M491.9,584.7969 L491.9,640.1953 L903.0777,640.1953 L903.0777,594.7969 L893.0777,584.7969 L491.9,584.7969" fill="#FEFFDD" style="stroke:#181818;stroke-width:0.5;"></path><path d="M893.0777,584.7969 L893.0777,594.7969 L903.0777,594.7969 L893.0777,584.7969" fill="#FEFFDD" style="stroke:#181818;stroke-width:1;"></path><text fill="#000000" font-family="sans-serif" font-size="13" font-weight="bold" lengthAdjust="spacing" textLength="91.3682" x="497.9" y="601.8638">D&#233;marrage :</text><text fill="#000000" font-family="sans-serif" font-size="13" lengthAdjust="spacing" textLength="57.9351" x="593.4005" y="601.8638">./start.sh</text><text fill="#000000" font-family="sans-serif" font-size="13" lengthAdjust="spacing" textLength="249.9072" x="497.9" y="616.9966">Reconstruit et lance Docker Compose.</text><text fill="#000000" font-family="sans-serif" font-size="13" lengthAdjust="spacing" textLength="390.1777" x="497.9" y="632.1294">cloudflared expose le serveur sans ouvrir de ports entrants.</text></g><g class="link" id="lnk10"><path d="M206.4,136.2069 C206.4,160.8469 206.4,184.5669 206.4,206.4369" fill="none" id="User-to-Cloudflare" style="stroke:#181818;stroke-width:1;"></path><polygon fill="#181818" points="206.4,212.4369,210.4,203.4369,206.4,207.4369,202.4,203.4369,206.4,212.4369" style="stroke:#181818;stroke-width:1;"></polygon><text fill="#000000" font-family="sans-serif" font-size="13" lengthAdjust="spacing" textLength="41.7485" x="207.4" y="178.8638">HTTPS</text></g><g class="link" id="lnk11"><path d="M206.4,281.9869 C206.4,319.3169 206.4,369.6569 206.4,404.5869" fill="none" id="Cloudflare-Tunnel" style="stroke:#181818;stroke-width:1;"></path><polygon fill="#181818" points="206.4,275.9869,202.4,284.9869,206.4,280.9869,210.4,284.9869,206.4,275.9869" style="stroke:#181818;stroke-width:1;"></polygon><polygon fill="#181818" points="206.4,410.5869,210.4,401.5869,206.4,405.5869,202.4,401.5869,206.4,410.5869" style="stroke:#181818;stroke-width:1;"></polygon><text fill="#000000" font-family="sans-serif" font-size="13" lengthAdjust="spacing" textLength="89.8955" x="207.4" y="318.8638">Tunnel chiffr&#233;</text></g><g class="link" id="lnk12"><path d="M150.41,464.0669 C139.18,471.9469 128.86,481.7869 122.4,493.7969 C108.44,519.7469 114.4452,547.5231 124.5952,572.0431" fill="none" id="Tunnel-to-Frontend" style="stroke:#181818;stroke-width:1;"></path><polygon fill="#181818" points="126.89,577.5869,127.1436,567.7413,124.9776,572.967,119.7519,570.8011,126.89,577.5869" style="stroke:#181818;stroke-width:1;"></polygon><text fill="#000000" font-family="sans-serif" font-size="13" lengthAdjust="spacing" textLength="152.9595" x="123.4" y="506.8638">dev.librairiecrystal.com</text></g><g class="link" id="lnk13"><path d="M254.32,464.0369 C264.8,472.0869 274.51,482.0169 280.4,493.7969 C283.78,500.5569 281.65,503.3469 280.4,510.7969 C269.81,573.8669 263.08,590.1469 233.4,646.7969 C218.94,674.3969 201.8328,698.0134 184.8928,719.0534" fill="none" id="Tunnel-to-Backend" style="stroke:#181818;stroke-width:1;"></path><polygon fill="#181818" points="181.13,723.7269,189.8898,719.2252,184.2656,719.8323,183.6585,714.2081,181.13,723.7269" style="stroke:#181818;stroke-width:1;"></polygon><text fill="#000000" font-family="sans-serif" font-size="13" lengthAdjust="spacing" textLength="148.8462" x="279.4" y="616.8638">api.librairiecrystal.com</text></g><g class="link" id="lnk14"><path d="M73.13,632.2169 C37.79,645.4669 6,665.8369 23.4,693.7969 C35.01,712.4469 48.4688,723.1848 68.2388,732.6548" fill="none" id="Frontend-to-Backend" style="stroke:#181818;stroke-width:1;stroke-dasharray:7,7;"></path><polygon fill="#181818" points="73.65,735.2469,67.2612,727.7514,69.1406,733.0869,63.8051,734.9663,73.65,735.2469" style="stroke:#181818;stroke-width:1;"></polygon><text fill="#000000" font-family="sans-serif" font-size="13" lengthAdjust="spacing" textLength="107.3833" x="24.4" y="689.8638">Appels API (JWT)</text></g><g class="link" id="lnk15"><path d="M152.4,798.9469 C152.4,822.3269 152.4,841.2169 152.4,863.7669" fill="none" id="Backend-DB" style="stroke:#181818;stroke-width:1;"></path><polygon fill="#181818" points="152.4,792.9469,148.4,801.9469,152.4,797.9469,156.4,801.9469,152.4,792.9469" style="stroke:#181818;stroke-width:1;"></polygon><polygon fill="#181818" points="152.4,869.7669,156.4,860.7669,152.4,864.7669,148.4,860.7669,152.4,869.7669" style="stroke:#181818;stroke-width:1;"></polygon><text fill="#000000" font-family="sans-serif" font-size="13" lengthAdjust="spacing" textLength="50.1973" x="153.4" y="835.8638">EF Core</text></g><g class="link" id="lnk21"><path d="M467.7511,444.3681 C468.3035,444.7696 468.8809,445.1893 469.4825,445.6266 C470.6857,446.5011 471.9856,447.446 473.3764,448.4569 C476.1578,450.4786 479.3023,452.7642 482.762,455.2789 C496.6009,465.3378 515.4831,479.0625 536.3437,494.2256 C578.065,524.5519 627.7,560.6319 660.73,584.6469" fill="none" id="Server-GMN19" style="stroke:#181818;stroke-width:1;stroke-dasharray:7,7;"></path></g><g class="footer"><text fill="#888888" font-family="sans-serif" font-size="10" lengthAdjust="spacing" textLength="201.6064" x="347.2356" y="1005.0791">Crystal ERP - Architecture de Production</text></g><?plantuml-src TLJ1JXin4BtxAqR90KYL9OXMWgYg10JKLhHAaw1Uk7YTsOqLnzwElIceujeFw5UKxyYVz4iwtjs4RGMvn1w_UVCyyxoPSm49BkZU1sdWSZA6FfoHMkY0AfI4C4SOavkNAcXdXV1BRGj9SWNAhGfdqOPfk3S8n7XfSuCjY5_8kVkkRGwPDBvzKaYrb3dMgHb7K8YW0sz6MkQyNt7blPU5iCgMPY6a2ewWSnEqqLu6BCdVslqH-cLm1Hp29vTgWmSTa1vkF98GohXo3fsB-9SPISZuzxFPUChewVIwXZwTGjSHNuzbMiTAEbEaDLS1LQle-xWdvhZMjhohioiCmGyXW7-xVa57xMZddB6bcEEw7qfhqTJfishzL3YID7s3piYfPHnS9FLHUtB891GIlwYp6q1J_3y1L-HiGClL9yYjWwDJU0Ksr_RkrXgdf5au7uR7Wy6Wujh2eMjqlWYfAV4vrdCM5r5dum-tjXbFmXlOJpvVpk3qe4r-CZYfoRTPtLJxRotYkGmobPxlEcPyJZZzSWr79ssEDw-FZ-lBdaENtBqqEsaFua68FUZtsSvARNvxAChKQ1KZ8Zg05-_Qynr2DNtH2hsDa6OAm-s27Pbbj7aKeWb4qAv1GxRfEZ4w9Qb9OpFQX9lKXc-lF0HPwEVHOaUP9Es4iw90uw7gwiUlimEnFQh4SX-6S7d5jg3AgO7VPPmOkAnrLsvGhpTnPS2cAvj7zBqUXryI3tz-_eBA3mnwINCDYdCLKL2itcX8NGXypYBg9r4966qULv8ekddOwy6JV_bqWifP7wZK0J20aLOX_6lvX66jTmHu5wF0Nn3VF4qlhGTNhabJ_7WKZe87DYe_f-2JdSQ_?></g></svg>